<mxfile host="app.diagrams.net" agent="Mozilla/5.0 (Macintosh; Intel Mac OS X 10_15_7) AppleWebKit/537.36 (KHTML, like Gecko) Chrome/137.0.0.0 Safari/537.36" version="27.1.6">
  <diagram name="Module Dependency Graph" id="3IxSpeuVudJ3VOy5dBZu">
    <mxGraphModel dx="1018" dy="599" grid="1" gridSize="10" guides="1" tooltips="1" connect="1" arrows="1" fold="1" page="1" pageScale="1" pageWidth="827" pageHeight="1169" math="0" shadow="0">
      <root>
        <mxCell id="0" />
        <mxCell id="1" parent="0" />
        <mxCell id="9mXRGWOLIaPotrgCLtJR-69" style="edgeStyle=orthogonalEdgeStyle;rounded=0;orthogonalLoop=1;jettySize=auto;html=1;exitX=0.5;exitY=1;exitDx=0;exitDy=0;entryX=0.5;entryY=0;entryDx=0;entryDy=0;" parent="1" source="9mXRGWOLIaPotrgCLtJR-37" target="9mXRGWOLIaPotrgCLtJR-45" edge="1">
          <mxGeometry relative="1" as="geometry" />
        </mxCell>
        <mxCell id="9mXRGWOLIaPotrgCLtJR-70" style="edgeStyle=orthogonalEdgeStyle;rounded=0;orthogonalLoop=1;jettySize=auto;html=1;exitX=0.5;exitY=1;exitDx=0;exitDy=0;entryX=0.5;entryY=0;entryDx=0;entryDy=0;" parent="1" source="9mXRGWOLIaPotrgCLtJR-37" target="9mXRGWOLIaPotrgCLtJR-40" edge="1">
          <mxGeometry relative="1" as="geometry" />
        </mxCell>
        <mxCell id="9mXRGWOLIaPotrgCLtJR-72" style="edgeStyle=orthogonalEdgeStyle;rounded=0;orthogonalLoop=1;jettySize=auto;html=1;exitX=0.5;exitY=1;exitDx=0;exitDy=0;entryX=0.5;entryY=0;entryDx=0;entryDy=0;" parent="1" source="9mXRGWOLIaPotrgCLtJR-37" target="9mXRGWOLIaPotrgCLtJR-43" edge="1">
          <mxGeometry relative="1" as="geometry" />
        </mxCell>
        <mxCell id="9mXRGWOLIaPotrgCLtJR-73" style="edgeStyle=orthogonalEdgeStyle;rounded=0;orthogonalLoop=1;jettySize=auto;html=1;exitX=0.5;exitY=1;exitDx=0;exitDy=0;entryX=0.5;entryY=0;entryDx=0;entryDy=0;" parent="1" source="9mXRGWOLIaPotrgCLtJR-37" target="9mXRGWOLIaPotrgCLtJR-44" edge="1">
          <mxGeometry relative="1" as="geometry" />
        </mxCell>
        <mxCell id="9mXRGWOLIaPotrgCLtJR-74" style="edgeStyle=orthogonalEdgeStyle;rounded=0;orthogonalLoop=1;jettySize=auto;html=1;exitX=0.5;exitY=1;exitDx=0;exitDy=0;entryX=0.5;entryY=0;entryDx=0;entryDy=0;" parent="1" source="9mXRGWOLIaPotrgCLtJR-37" target="9mXRGWOLIaPotrgCLtJR-46" edge="1">
          <mxGeometry relative="1" as="geometry" />
        </mxCell>
        <mxCell id="9mXRGWOLIaPotrgCLtJR-90" value="&lt;font style=&quot;font-size: 9px;&quot;&gt;网关服务不依赖任何模块，通过API路由到各个服务&lt;/font&gt;" style="edgeLabel;html=1;align=center;verticalAlign=middle;resizable=0;points=[];" parent="9mXRGWOLIaPotrgCLtJR-74" vertex="1" connectable="0">
          <mxGeometry x="-0.8752" relative="1" as="geometry">
            <mxPoint as="offset" />
          </mxGeometry>
        </mxCell>
        <mxCell id="9mXRGWOLIaPotrgCLtJR-37" value="octox-gateway-service&lt;br&gt;网关服务" style="html=1;whiteSpace=wrap;fontSize=9;" parent="1" vertex="1">
          <mxGeometry x="440" y="50" width="190" height="40" as="geometry" />
        </mxCell>
        <mxCell id="9mXRGWOLIaPotrgCLtJR-83" style="edgeStyle=orthogonalEdgeStyle;rounded=0;orthogonalLoop=1;jettySize=auto;html=1;exitX=0;exitY=0.75;exitDx=0;exitDy=0;entryX=1;entryY=0.75;entryDx=0;entryDy=0;strokeColor=#d79b00;fillColor=#ffe6cc;" parent="1" source="9mXRGWOLIaPotrgCLtJR-40" target="9mXRGWOLIaPotrgCLtJR-45" edge="1">
          <mxGeometry relative="1" as="geometry" />
        </mxCell>
        <mxCell id="9mXRGWOLIaPotrgCLtJR-84" style="edgeStyle=orthogonalEdgeStyle;rounded=0;orthogonalLoop=1;jettySize=auto;html=1;exitX=1;exitY=0.25;exitDx=0;exitDy=0;entryX=0;entryY=0.25;entryDx=0;entryDy=0;fillColor=#ffe6cc;strokeColor=#d79b00;" parent="1" source="9mXRGWOLIaPotrgCLtJR-40" target="9mXRGWOLIaPotrgCLtJR-41" edge="1">
          <mxGeometry relative="1" as="geometry" />
        </mxCell>
        <mxCell id="9mXRGWOLIaPotrgCLtJR-40" value="octox-activity-service&lt;br&gt;活动服务" style="html=1;whiteSpace=wrap;fontSize=9;" parent="1" vertex="1">
          <mxGeometry x="200" y="210" width="150" height="30" as="geometry" />
        </mxCell>
        <mxCell id="9mXRGWOLIaPotrgCLtJR-85" style="edgeStyle=orthogonalEdgeStyle;rounded=0;orthogonalLoop=1;jettySize=auto;html=1;exitX=0;exitY=0.75;exitDx=0;exitDy=0;entryX=1;entryY=0.75;entryDx=0;entryDy=0;fillColor=#ffe6cc;strokeColor=#d79b00;" parent="1" source="9mXRGWOLIaPotrgCLtJR-41" target="9mXRGWOLIaPotrgCLtJR-40" edge="1">
          <mxGeometry relative="1" as="geometry" />
        </mxCell>
        <mxCell id="9mXRGWOLIaPotrgCLtJR-86" style="edgeStyle=orthogonalEdgeStyle;rounded=0;orthogonalLoop=1;jettySize=auto;html=1;exitX=1;exitY=0.25;exitDx=0;exitDy=0;entryX=0;entryY=0.25;entryDx=0;entryDy=0;fillColor=#ffe6cc;strokeColor=#d79b00;" parent="1" source="9mXRGWOLIaPotrgCLtJR-41" target="9mXRGWOLIaPotrgCLtJR-43" edge="1">
          <mxGeometry relative="1" as="geometry" />
        </mxCell>
        <mxCell id="9mXRGWOLIaPotrgCLtJR-41" value="octox-collection-servic&lt;br&gt;埋点服务" style="html=1;whiteSpace=wrap;fontSize=9;" parent="1" vertex="1">
          <mxGeometry x="370" y="210" width="150" height="30" as="geometry" />
        </mxCell>
        <mxCell id="9mXRGWOLIaPotrgCLtJR-87" style="edgeStyle=orthogonalEdgeStyle;rounded=0;orthogonalLoop=1;jettySize=auto;html=1;exitX=0;exitY=0.75;exitDx=0;exitDy=0;entryX=1;entryY=0.75;entryDx=0;entryDy=0;fillColor=#ffe6cc;strokeColor=#d79b00;" parent="1" source="9mXRGWOLIaPotrgCLtJR-43" target="9mXRGWOLIaPotrgCLtJR-41" edge="1">
          <mxGeometry relative="1" as="geometry" />
        </mxCell>
        <mxCell id="9mXRGWOLIaPotrgCLtJR-88" style="edgeStyle=orthogonalEdgeStyle;rounded=0;orthogonalLoop=1;jettySize=auto;html=1;exitX=1;exitY=0.25;exitDx=0;exitDy=0;entryX=0;entryY=0.25;entryDx=0;entryDy=0;fillColor=#ffe6cc;strokeColor=#d79b00;" parent="1" source="9mXRGWOLIaPotrgCLtJR-43" target="9mXRGWOLIaPotrgCLtJR-44" edge="1">
          <mxGeometry relative="1" as="geometry" />
        </mxCell>
        <mxCell id="9mXRGWOLIaPotrgCLtJR-43" value="octox-usercenter-service&lt;br&gt;用户&lt;span style=&quot;background-color: transparent; color: light-dark(rgb(0, 0, 0), rgb(255, 255, 255));&quot;&gt;服务&lt;/span&gt;" style="html=1;whiteSpace=wrap;fontSize=9;" parent="1" vertex="1">
          <mxGeometry x="560" y="210" width="150" height="30" as="geometry" />
        </mxCell>
        <mxCell id="9mXRGWOLIaPotrgCLtJR-89" style="edgeStyle=orthogonalEdgeStyle;rounded=0;orthogonalLoop=1;jettySize=auto;html=1;exitX=0;exitY=0.75;exitDx=0;exitDy=0;entryX=1;entryY=0.75;entryDx=0;entryDy=0;fillColor=#ffe6cc;strokeColor=#d79b00;" parent="1" source="9mXRGWOLIaPotrgCLtJR-44" target="9mXRGWOLIaPotrgCLtJR-43" edge="1">
          <mxGeometry relative="1" as="geometry" />
        </mxCell>
        <mxCell id="9mXRGWOLIaPotrgCLtJR-44" value="octox-exchange-service&lt;br&gt;交易所服务" style="html=1;whiteSpace=wrap;fontSize=9;" parent="1" vertex="1">
          <mxGeometry x="750" y="210" width="150" height="30" as="geometry" />
        </mxCell>
        <mxCell id="9mXRGWOLIaPotrgCLtJR-82" style="edgeStyle=orthogonalEdgeStyle;rounded=0;orthogonalLoop=1;jettySize=auto;html=1;exitX=1;exitY=0.25;exitDx=0;exitDy=0;entryX=0;entryY=0.25;entryDx=0;entryDy=0;fontColor=#66FF66;fillColor=#ffe6cc;strokeColor=#d79b00;" parent="1" source="9mXRGWOLIaPotrgCLtJR-45" target="9mXRGWOLIaPotrgCLtJR-40" edge="1">
          <mxGeometry relative="1" as="geometry" />
        </mxCell>
        <mxCell id="9mXRGWOLIaPotrgCLtJR-45" value="octox-base-service&lt;br&gt;基础服务" style="html=1;whiteSpace=wrap;fontSize=9;" parent="1" vertex="1">
          <mxGeometry x="20" y="210" width="150" height="30" as="geometry" />
        </mxCell>
        <mxCell id="9mXRGWOLIaPotrgCLtJR-46" value="octox-admin-service&lt;br&gt;管理系统服务" style="html=1;whiteSpace=wrap;fontSize=9;" parent="1" vertex="1">
          <mxGeometry x="920" y="210" width="150" height="30" as="geometry" />
        </mxCell>
        <mxCell id="9mXRGWOLIaPotrgCLtJR-75" style="edgeStyle=orthogonalEdgeStyle;rounded=0;orthogonalLoop=1;jettySize=auto;html=1;exitX=0;exitY=0.5;exitDx=0;exitDy=0;entryX=0.5;entryY=1;entryDx=0;entryDy=0;" parent="1" source="9mXRGWOLIaPotrgCLtJR-47" target="9mXRGWOLIaPotrgCLtJR-45" edge="1">
          <mxGeometry relative="1" as="geometry" />
        </mxCell>
        <mxCell id="9mXRGWOLIaPotrgCLtJR-77" style="edgeStyle=orthogonalEdgeStyle;rounded=0;orthogonalLoop=1;jettySize=auto;html=1;exitX=0;exitY=0.5;exitDx=0;exitDy=0;entryX=0.5;entryY=1;entryDx=0;entryDy=0;" parent="1" source="9mXRGWOLIaPotrgCLtJR-47" target="9mXRGWOLIaPotrgCLtJR-40" edge="1">
          <mxGeometry relative="1" as="geometry" />
        </mxCell>
        <mxCell id="9mXRGWOLIaPotrgCLtJR-78" style="edgeStyle=orthogonalEdgeStyle;rounded=0;orthogonalLoop=1;jettySize=auto;html=1;exitX=0;exitY=0.5;exitDx=0;exitDy=0;entryX=0.411;entryY=1.033;entryDx=0;entryDy=0;entryPerimeter=0;" parent="1" source="9mXRGWOLIaPotrgCLtJR-47" target="9mXRGWOLIaPotrgCLtJR-41" edge="1">
          <mxGeometry relative="1" as="geometry" />
        </mxCell>
        <mxCell id="9mXRGWOLIaPotrgCLtJR-79" style="edgeStyle=orthogonalEdgeStyle;rounded=0;orthogonalLoop=1;jettySize=auto;html=1;exitX=1;exitY=0.5;exitDx=0;exitDy=0;entryX=0.5;entryY=1;entryDx=0;entryDy=0;" parent="1" source="9mXRGWOLIaPotrgCLtJR-47" target="9mXRGWOLIaPotrgCLtJR-43" edge="1">
          <mxGeometry relative="1" as="geometry" />
        </mxCell>
        <mxCell id="9mXRGWOLIaPotrgCLtJR-80" style="edgeStyle=orthogonalEdgeStyle;rounded=0;orthogonalLoop=1;jettySize=auto;html=1;exitX=1;exitY=0.5;exitDx=0;exitDy=0;entryX=0.5;entryY=1;entryDx=0;entryDy=0;" parent="1" source="9mXRGWOLIaPotrgCLtJR-47" target="9mXRGWOLIaPotrgCLtJR-44" edge="1">
          <mxGeometry relative="1" as="geometry" />
        </mxCell>
        <mxCell id="9mXRGWOLIaPotrgCLtJR-81" style="edgeStyle=orthogonalEdgeStyle;rounded=0;orthogonalLoop=1;jettySize=auto;html=1;exitX=1;exitY=0.5;exitDx=0;exitDy=0;entryX=0.5;entryY=1;entryDx=0;entryDy=0;" parent="1" source="9mXRGWOLIaPotrgCLtJR-47" target="9mXRGWOLIaPotrgCLtJR-46" edge="1">
          <mxGeometry relative="1" as="geometry" />
        </mxCell>
        <mxCell id="9mXRGWOLIaPotrgCLtJR-47" value="octox-common&lt;br&gt;公共&lt;span style=&quot;background-color: transparent; color: light-dark(rgb(0, 0, 0), rgb(255, 255, 255));&quot;&gt;模块&lt;/span&gt;" style="html=1;whiteSpace=wrap;fontSize=9;" parent="1" vertex="1">
          <mxGeometry x="460" y="340" width="150" height="30" as="geometry" />
        </mxCell>
        <mxCell id="9mXRGWOLIaPotrgCLtJR-91" style="edgeStyle=orthogonalEdgeStyle;rounded=0;orthogonalLoop=1;jettySize=auto;html=1;exitX=0.5;exitY=1;exitDx=0;exitDy=0;entryX=0.402;entryY=-0.078;entryDx=0;entryDy=0;entryPerimeter=0;" parent="1" source="9mXRGWOLIaPotrgCLtJR-37" target="9mXRGWOLIaPotrgCLtJR-41" edge="1">
          <mxGeometry relative="1" as="geometry" />
        </mxCell>
        <mxCell id="9mXRGWOLIaPotrgCLtJR-92" value="&lt;font style=&quot;font-size: 9px;&quot;&gt;各个子服务相互依赖彼此API模块&lt;/font&gt;" style="text;html=1;align=center;verticalAlign=middle;whiteSpace=wrap;rounded=0;" parent="1" vertex="1">
          <mxGeometry x="460" y="170" width="160" height="20" as="geometry" />
        </mxCell>
        <mxCell id="9mXRGWOLIaPotrgCLtJR-93" value="&lt;font style=&quot;font-size: 9px;&quot;&gt;管理系统服务只依赖common模块&lt;/font&gt;" style="text;html=1;align=center;verticalAlign=middle;whiteSpace=wrap;rounded=0;" parent="1" vertex="1">
          <mxGeometry x="1000" y="172.5" width="140" height="15" as="geometry" />
        </mxCell>
        <mxCell id="9mXRGWOLIaPotrgCLtJR-94" value="&lt;font style=&quot;font-size: 9px;&quot;&gt;所有业务模块都要依赖common公共模块&lt;/font&gt;" style="text;html=1;align=center;verticalAlign=middle;whiteSpace=wrap;rounded=0;" parent="1" vertex="1">
          <mxGeometry x="475" y="280" width="120" height="30" as="geometry" />
        </mxCell>
      </root>
    </mxGraphModel>
  </diagram>
</mxfile>
